<?xml version="1.0" standalone="no"?>
<!DOCTYPE svg PUBLIC "-//W3C//DTD SVG 20010904//EN"
 "http://www.w3.org/TR/2001/REC-SVG-20010904/DTD/svg10.dtd">
<svg version="1.0" xmlns="http://www.w3.org/2000/svg"
 width="3044.000000pt" height="2196.000000pt" viewBox="0 0 3044.000000 2196.000000"
 preserveAspectRatio="xMidYMid meet">

<g transform="translate(0.000000,2196.000000) scale(0.100000,-0.100000)"
fill="#000000" stroke="none">
<path d="M15261 21688 c-14 -24 -84 -87 -266 -236 -156 -127 -321 -293 -556
-557 -47 -53 -147 -177 -217 -270 -98 -131 -105 -141 -173 -240 -34 -49 -70
-99 -79 -110 -10 -11 -26 -36 -37 -55 -10 -19 -34 -60 -54 -90 -19 -30 -54
-93 -78 -139 -23 -47 -58 -102 -76 -124 -27 -31 -32 -43 -23 -56 12 -20 -26
-86 -55 -97 -15 -5 -18 -13 -13 -38 4 -21 1 -39 -8 -51 -14 -20 -15 -20 -29
-1 -19 25 -32 4 -15 -23 11 -18 9 -27 -9 -63 -35 -67 -73 -157 -73 -172 0 -7
-13 -44 -29 -82 -15 -38 -36 -91 -45 -119 -10 -27 -33 -93 -51 -145 -18 -52
-38 -117 -44 -145 -6 -27 -18 -81 -27 -120 -55 -245 -69 -312 -80 -410 -3 -27
-9 -59 -14 -70 -27 -62 -40 -256 -46 -690 -3 -224 -1 -367 5 -380 14 -29 34
-152 28 -174 -2 -11 0 -39 5 -63 17 -79 28 -142 38 -208 12 -88 53 -271 89
-405 34 -123 163 -516 190 -579 10 -23 24 -59 31 -81 16 -49 146 -311 188
-380 17 -27 63 -106 103 -175 39 -69 103 -166 141 -217 38 -50 77 -106 86
-125 92 -176 227 -349 455 -580 67 -68 151 -156 185 -196 35 -40 87 -88 115
-107 29 -19 106 -86 172 -149 75 -72 124 -111 130 -105 11 11 25 12 25 2 0 -5
34 -44 74 -87 l75 -79 25 30 c40 47 129 112 164 119 32 7 41 18 22 29 -15 9
-12 35 4 35 8 0 21 6 28 13 7 7 56 47 108 90 52 43 112 92 134 110 21 18 50
49 63 70 13 21 101 117 196 213 94 97 183 193 197 214 15 22 48 65 76 96 27
31 69 87 94 124 25 37 65 95 90 130 73 102 151 222 215 330 33 56 72 117 88
135 18 22 25 39 20 50 -3 11 0 22 8 29 15 12 111 201 152 301 14 33 41 92 60
130 19 39 37 84 41 100 4 17 14 44 21 60 50 110 109 295 166 515 34 135 50
201 59 255 7 33 20 89 30 125 10 36 19 93 19 128 0 34 3 68 7 74 16 26 33 193
23 224 -6 21 -6 40 1 59 14 38 15 744 1 758 -6 6 -11 43 -11 83 0 49 -4 74
-12 76 -8 3 -14 26 -15 59 -1 30 -6 79 -11 109 -14 80 -41 219 -51 265 -6 22
-15 69 -22 105 -6 36 -22 103 -36 150 -13 47 -31 112 -40 145 -9 33 -23 76
-33 95 -10 19 -29 70 -44 113 -15 42 -44 115 -66 161 -22 46 -47 105 -56 132
-19 57 -192 403 -227 455 -13 19 -41 66 -61 105 -37 66 -187 298 -221 339 -21
26 -191 262 -213 296 -10 15 -65 77 -122 139 -58 62 -107 117 -109 124 -2 6
-83 90 -180 186 -165 165 -330 308 -412 358 -19 12 -44 30 -54 42 -18 19 -18
20 1 20 20 1 22 -2 -46 53 -36 29 -79 57 -87 57 -5 0 -15 -10 -22 -22z"/>
<path d="M23570 19265 c-14 -8 -37 -14 -51 -15 -14 0 -34 -9 -44 -20 -12 -13
-25 -18 -41 -14 -34 9 -220 -39 -428 -108 -100 -33 -190 -62 -201 -63 -11 -1
-37 -9 -57 -18 -21 -9 -46 -17 -57 -17 -11 0 -41 -11 -68 -24 -26 -14 -55 -24
-63 -23 -8 0 -54 -18 -102 -41 -48 -23 -92 -42 -98 -42 -5 0 -51 -18 -102 -40
-51 -22 -99 -40 -106 -40 -7 0 -57 -23 -112 -50 -55 -28 -108 -51 -117 -53
-10 -2 -39 -15 -64 -30 -25 -15 -51 -27 -57 -27 -19 0 -272 -126 -347 -173
-38 -24 -117 -68 -175 -97 -58 -30 -139 -75 -180 -101 -95 -60 -294 -189 -381
-246 -37 -24 -72 -43 -78 -43 -6 0 -39 -26 -74 -57 -35 -32 -97 -80 -137 -107
-79 -54 -285 -218 -452 -361 -57 -49 -120 -101 -138 -115 -45 -33 -105 -86
-212 -189 -48 -46 -109 -99 -135 -117 -27 -17 -76 -66 -111 -108 -35 -42 -76
-83 -92 -93 -15 -9 -38 -33 -49 -54 -12 -20 -59 -77 -105 -126 -46 -48 -100
-108 -121 -133 -21 -25 -40 -47 -44 -50 -14 -11 -149 -177 -166 -205 -11 -16
-38 -52 -60 -80 -38 -46 -96 -124 -170 -228 -17 -23 -46 -63 -65 -88 -19 -26
-42 -57 -50 -69 -8 -12 -28 -39 -43 -59 -16 -20 -56 -83 -88 -141 -33 -58 -82
-139 -109 -180 -27 -41 -66 -104 -86 -140 -20 -36 -58 -99 -83 -140 -59 -97
-56 -91 -172 -325 -55 -110 -109 -217 -119 -238 -11 -22 -20 -48 -20 -59 0
-29 -54 -127 -98 -175 -46 -51 -62 -77 -62 -102 0 -10 -12 -54 -26 -97 -14
-44 -34 -110 -44 -149 -29 -109 -63 -216 -141 -440 -75 -217 -148 -470 -180
-629 -37 -180 -39 -191 -50 -224 -19 -59 -71 -275 -80 -337 -5 -33 -13 -116
-19 -185 -5 -69 -14 -150 -20 -180 -6 -30 -13 -77 -16 -105 l-5 -50 53 -23
c29 -12 59 -22 66 -22 14 0 93 -30 147 -56 17 -8 73 -29 125 -48 122 -43 334
-137 413 -184 34 -19 115 -62 182 -94 136 -66 242 -122 265 -142 8 -7 25 -16
37 -18 25 -7 148 -83 239 -151 36 -26 69 -47 74 -47 8 0 56 -32 115 -78 6 -4
28 -19 50 -32 36 -22 263 -196 275 -210 3 -3 19 -16 37 -28 22 -16 30 -28 26
-42 -6 -22 12 -28 20 -7 4 8 8 8 14 2 4 -6 37 -35 73 -65 35 -30 93 -82 129
-115 92 -86 90 -84 171 -155 104 -91 222 -212 404 -414 49 -54 116 -126 148
-159 32 -33 58 -63 58 -67 0 -4 10 -18 21 -31 12 -13 33 -40 48 -59 14 -19 28
-37 31 -40 29 -27 60 -76 60 -92 0 -11 23 -49 52 -84 44 -55 56 -64 84 -64 36
0 57 20 48 44 -4 12 3 20 27 30 19 8 47 28 63 45 17 17 38 31 47 31 10 0 22 6
26 13 4 7 26 26 48 43 48 35 48 35 160 126 50 40 92 76 93 80 2 5 11 8 20 8
10 1 42 23 72 51 30 28 100 89 155 137 55 48 109 96 120 107 11 11 40 38 65
59 119 102 472 459 600 607 30 35 93 107 140 160 106 120 120 136 150 179 25
36 96 127 134 170 11 14 26 33 31 42 11 20 192 285 245 359 123 173 188 274
240 374 18 33 47 82 65 110 18 27 50 82 72 120 42 76 307 609 343 690 12 28
30 68 40 90 10 22 37 82 60 134 48 108 104 255 145 386 16 50 32 95 36 100 14
19 59 147 59 169 0 11 20 77 44 146 92 259 176 558 176 623 0 16 4 46 9 66 16
59 50 252 56 314 3 32 12 93 19 135 32 169 49 293 57 407 14 208 21 279 31
298 13 26 12 1025 -2 1102 -11 64 -17 139 -26 325 -3 63 -9 117 -15 120 -5 3
-10 39 -11 79 -1 39 -5 74 -10 77 -4 3 -8 32 -8 65 0 32 -4 59 -9 59 -5 0 -11
28 -15 63 -11 118 -23 192 -39 252 -10 32 -17 71 -17 86 0 15 -6 54 -14 86 -8
32 -26 112 -41 178 -14 66 -30 129 -35 140 -12 28 -25 96 -22 119 1 11 -6 29
-17 40 -24 25 -38 76 -22 76 19 0 12 20 -15 44 -25 21 -26 24 -13 59 11 32 11
39 -4 55 -9 10 -17 23 -17 29 0 6 -7 16 -15 23 -9 7 -12 22 -9 38 4 19 -3 39
-22 67 -17 24 -28 54 -28 76 -1 21 -9 46 -19 57 -14 15 -17 29 -12 51 5 22 0
44 -15 75 -28 60 -39 68 -70 51z"/>
<path d="M6972 19258 c-7 -7 -12 -17 -12 -24 0 -6 -14 -42 -31 -79 -19 -42
-28 -76 -25 -91 4 -14 -4 -41 -19 -72 -28 -57 -73 -188 -105 -312 -12 -47 -28
-105 -36 -130 -7 -25 -16 -63 -19 -85 -4 -22 -17 -89 -31 -150 -26 -116 -42
-193 -74 -340 -44 -208 -82 -436 -100 -605 -5 -47 -15 -107 -21 -135 -7 -27
-16 -147 -21 -265 -16 -374 -8 -1420 11 -1445 9 -11 27 -135 36 -243 3 -41 10
-82 15 -92 6 -11 13 -54 16 -97 4 -43 15 -114 25 -158 10 -44 19 -96 19 -115
0 -19 9 -78 21 -130 11 -52 30 -138 41 -190 11 -52 32 -133 45 -180 44 -154
53 -191 53 -228 0 -21 6 -46 14 -57 7 -11 17 -31 21 -45 4 -14 16 -36 26 -49
14 -18 19 -41 19 -93 0 -61 4 -77 40 -144 26 -49 40 -89 40 -112 0 -21 18 -80
39 -132 22 -52 49 -122 61 -155 12 -33 49 -121 81 -195 33 -74 59 -139 59
-144 0 -5 13 -30 29 -55 15 -26 38 -76 51 -111 21 -60 61 -153 97 -225 60
-118 150 -277 178 -310 17 -22 36 -51 40 -65 17 -56 121 -247 162 -297 25 -30
66 -91 92 -136 120 -205 154 -257 215 -337 55 -71 142 -192 198 -274 13 -18
73 -97 126 -166 15 -19 38 -46 52 -60 14 -14 49 -54 78 -90 113 -137 174 -202
409 -435 357 -355 429 -420 758 -682 291 -232 414 -323 434 -323 5 0 31 -16
57 -36 40 -31 48 -34 56 -20 9 16 49 63 147 175 31 35 70 85 87 110 17 25 44
59 58 75 15 15 50 56 78 90 155 187 491 528 640 649 51 42 129 110 173 152 44
42 127 106 184 143 57 37 125 85 150 107 26 23 65 52 87 65 21 13 41 27 44 30
3 3 109 74 235 158 127 83 235 156 241 161 18 15 234 135 289 161 28 13 138
66 245 118 116 56 215 97 245 102 27 4 61 13 75 19 14 5 57 22 95 36 39 15 89
35 112 46 24 10 50 19 58 19 23 0 95 39 95 50 0 6 12 16 26 22 23 11 25 16 19
52 -3 23 -10 88 -14 146 -5 58 -14 130 -20 160 -13 58 -24 121 -40 235 -11 75
-51 270 -82 399 -10 44 -19 91 -19 105 -1 27 -31 145 -89 351 -18 63 -42 149
-53 190 -22 86 -66 218 -133 405 -60 167 -76 208 -136 331 -27 56 -49 108 -49
115 0 8 -53 119 -117 247 -65 128 -122 242 -128 255 -29 64 -120 236 -146 273
-16 23 -29 45 -29 49 0 3 -17 32 -38 63 -21 31 -62 99 -92 150 -30 51 -62 104
-70 117 -8 13 -33 54 -54 92 -51 90 -175 271 -244 356 -47 59 -53 69 -41 83
12 15 11 16 -7 10 -16 -5 -26 3 -51 36 -82 115 -240 317 -293 377 -33 37 -84
100 -114 141 -91 125 -97 131 -115 125 -13 -4 -27 8 -51 42 -31 43 -280 302
-452 471 -38 36 -68 72 -68 79 0 10 -7 12 -19 8 -10 -3 -25 0 -32 7 -30 28
-214 192 -232 207 -11 9 -65 56 -119 104 -54 49 -102 86 -107 83 -5 -3 -19 5
-33 17 -13 13 -47 41 -74 62 -27 22 -51 42 -54 45 -3 3 -30 22 -60 42 -30 21
-83 59 -117 85 -34 26 -83 59 -109 73 -41 22 -147 87 -194 120 -60 42 -225
148 -269 173 -30 17 -56 39 -59 49 -3 12 -10 17 -22 13 -17 -6 -135 52 -225
111 -48 31 -375 194 -390 194 -4 0 -57 24 -119 54 -61 29 -128 59 -149 66 -22
7 -51 18 -65 26 -15 8 -33 14 -39 14 -7 0 -57 18 -110 41 -54 22 -125 50 -158
61 -33 12 -94 33 -135 49 -121 44 -347 118 -424 138 -39 11 -137 40 -218 65
-80 25 -166 46 -190 46 -23 1 -61 7 -83 15 -22 8 -40 15 -40 15 -1 0 -6 -5
-13 -12z"/>
<path d="M15193 12600 c-59 -4 -108 -11 -117 -19 -8 -7 -23 -11 -33 -9 -10 1
-40 -8 -68 -21 -27 -13 -76 -29 -109 -35 -45 -9 -61 -18 -67 -34 -4 -11 -21
-28 -37 -36 -68 -35 -264 -230 -346 -344 -36 -50 -66 -96 -66 -102 0 -5 -24
-60 -54 -122 -52 -109 -54 -117 -60 -221 -4 -59 -11 -120 -17 -135 -15 -37
-16 -266 -2 -283 5 -8 13 -41 15 -74 10 -114 97 -335 185 -467 65 -99 202
-232 326 -318 29 -19 54 -37 57 -40 12 -12 118 -59 148 -65 18 -4 52 -18 76
-31 37 -21 48 -23 70 -13 21 10 30 9 53 -7 23 -15 51 -19 155 -22 l126 -4 84
36 c46 20 91 36 99 36 9 0 37 11 62 25 26 13 53 22 61 19 7 -3 16 1 19 10 3 8
44 35 90 60 75 41 167 120 167 143 0 5 29 40 65 78 36 39 75 88 86 109 12 21
29 48 39 59 24 25 50 80 50 104 0 11 9 28 20 38 11 10 20 27 20 38 0 10 16 52
35 93 19 40 35 82 35 93 0 11 5 23 11 26 10 7 6 83 -7 148 -4 20 0 35 12 48
13 14 15 22 7 27 -7 4 -11 43 -12 97 -1 94 -10 156 -28 190 -6 11 -14 46 -17
77 -5 42 -26 93 -77 194 -102 202 -208 340 -314 409 -27 18 -62 44 -78 58 -58
55 -122 97 -161 108 -23 6 -45 14 -51 19 -5 4 -32 13 -60 19 -27 7 -55 17 -62
22 -6 6 -44 12 -85 15 -40 3 -89 6 -108 7 -19 1 -81 0 -137 -3z"/>
<path d="M27220 12239 c-124 -3 -265 -12 -315 -18 -49 -6 -139 -16 -200 -20
-60 -5 -157 -16 -215 -25 -58 -9 -168 -25 -245 -36 -153 -23 -310 -54 -365
-72 -19 -6 -51 -12 -70 -14 -38 -2 -430 -108 -460 -124 -10 -6 -28 -10 -40
-10 -11 0 -32 -7 -46 -16 -18 -13 -30 -14 -47 -7 -17 8 -34 4 -78 -18 -31 -16
-74 -32 -95 -38 -22 -5 -77 -23 -124 -41 -47 -17 -114 -42 -150 -55 -36 -13
-87 -33 -113 -44 -27 -12 -55 -21 -62 -21 -8 0 -62 -22 -120 -50 -58 -27 -112
-50 -118 -50 -7 0 -46 -16 -87 -36 -41 -20 -97 -45 -125 -56 -60 -23 -285
-131 -417 -200 -18 -9 -38 -21 -45 -27 -22 -19 -324 -173 -330 -168 -3 3 -31
-15 -63 -41 -32 -26 -92 -67 -132 -91 -62 -38 -251 -160 -393 -254 -22 -14
-77 -54 -122 -89 -45 -35 -101 -75 -125 -90 -67 -43 -217 -155 -282 -212 -32
-28 -82 -68 -110 -90 -28 -21 -91 -75 -141 -121 -49 -45 -108 -97 -130 -116
-49 -41 -212 -186 -240 -214 -11 -11 -54 -49 -95 -85 -78 -69 -109 -101 -209
-217 -34 -40 -68 -73 -75 -73 -18 0 -127 -124 -167 -190 -34 -55 -170 -204
-211 -231 -24 -16 -62 -47 -85 -70 l-41 -41 28 -49 c16 -27 27 -55 24 -63 -3
-8 10 -29 29 -47 44 -44 63 -76 71 -119 3 -19 20 -51 36 -70 17 -19 33 -44 36
-55 4 -10 13 -25 20 -33 17 -16 18 -46 3 -75 -9 -17 -9 -22 2 -25 8 -3 39 -30
69 -62 39 -41 72 -93 114 -177 33 -65 59 -127 58 -137 -1 -26 24 -74 64 -119
31 -33 34 -43 34 -97 0 -53 3 -63 29 -87 34 -33 51 -64 51 -92 0 -11 18 -53
40 -93 57 -104 115 -226 130 -273 7 -22 25 -71 40 -110 15 -38 33 -92 39 -120
13 -50 26 -93 41 -130 23 -57 50 -144 50 -160 0 -9 11 -39 25 -67 16 -32 23
-58 19 -74 -4 -14 1 -39 11 -61 10 -20 26 -68 35 -107 22 -85 48 -155 68 -178
9 -11 12 -27 7 -47 -6 -30 -1 -53 36 -159 11 -30 19 -65 19 -80 0 -14 4 -39 9
-56 23 -77 43 -169 57 -256 8 -52 20 -100 26 -107 6 -7 12 -46 13 -85 2 -74 9
-116 25 -153 11 -25 19 -74 30 -185 4 -47 13 -107 20 -135 6 -27 15 -117 20
-200 6 -82 14 -197 20 -255 5 -58 14 -159 20 -225 28 -310 36 -709 21 -1035
-25 -543 -33 -654 -51 -695 -5 -11 -11 -58 -14 -105 -9 -131 -39 -397 -56
-490 -6 -30 -15 -95 -21 -145 -5 -49 -16 -110 -24 -135 -7 -25 -18 -67 -24
-95 -6 -27 -18 -75 -27 -105 -9 -30 -20 -80 -25 -110 -5 -30 -13 -75 -19 -100
-6 -25 -15 -67 -20 -95 -22 -136 -32 -182 -44 -200 -7 -11 -23 -63 -36 -115
-21 -85 -45 -168 -134 -462 -15 -49 -31 -88 -36 -88 -6 0 -10 -7 -10 -16 0
-13 7 -15 38 -9 20 4 55 13 77 21 71 26 174 52 180 45 4 -3 13 2 20 12 9 12
35 21 79 28 36 5 74 13 84 18 9 5 35 14 57 20 22 5 83 25 135 44 52 20 138 49
190 66 117 37 170 58 193 79 13 11 20 13 29 4 8 -8 29 -1 82 28 39 21 96 48
126 60 30 11 69 27 87 35 17 8 34 15 37 15 3 0 71 32 150 70 80 39 154 70 166
70 11 0 20 4 20 9 0 5 24 24 53 42 123 77 185 114 237 142 30 17 76 47 102 66
25 20 94 67 152 104 58 38 134 92 169 120 35 29 99 77 141 107 72 51 211 174
260 229 43 49 241 241 248 241 6 0 122 132 207 235 9 11 52 63 96 115 131 156
206 255 326 434 52 76 99 146 105 155 36 51 222 375 278 485 37 72 70 135 75
140 4 6 18 35 30 65 13 30 44 89 70 130 44 72 60 104 94 196 9 22 45 102 81
177 36 75 66 143 66 151 0 8 6 27 14 43 34 69 86 187 86 196 0 5 14 41 31 80
27 63 52 129 145 393 13 39 31 84 39 101 15 31 31 82 109 344 49 162 118 366
181 535 34 93 51 144 92 285 29 103 101 315 123 365 12 29 19 61 16 76 -3 14
1 35 8 45 7 10 34 84 60 164 26 79 54 157 62 172 8 15 14 41 14 58 0 17 11 56
24 88 13 31 27 68 31 82 7 26 34 101 67 185 11 28 29 60 40 72 15 16 18 29 13
51 -3 17 0 43 8 63 23 53 75 192 80 214 17 66 101 293 135 365 39 80 83 192
122 305 10 28 57 129 104 225 48 96 99 207 113 245 29 78 62 141 140 262 29
46 53 88 53 95 0 12 79 160 90 168 3 3 26 41 51 84 24 44 59 95 76 114 18 19
60 84 94 145 70 125 165 277 183 292 7 6 32 37 57 70 119 161 217 276 383 449
248 259 347 359 440 441 44 39 94 83 110 98 68 63 176 148 232 182 32 20 84
53 115 73 31 20 108 69 171 109 63 40 131 88 152 107 20 20 45 36 54 36 9 0
24 4 32 10 19 12 -68 50 -115 50 -37 0 -145 46 -145 62 0 5 -7 7 -16 4 -9 -3
-103 23 -209 59 -107 36 -209 65 -228 65 -21 0 -41 7 -52 20 -11 12 -25 18
-36 15 -19 -6 -81 8 -134 30 -16 7 -66 20 -110 30 -44 9 -111 25 -150 35 -85
22 -442 87 -575 105 -25 3 -76 10 -115 16 -38 6 -117 15 -175 20 -125 10 -239
25 -260 32 -26 9 -596 14 -830 6z"/>
<path d="M2636 12233 c-4 -4 -66 -11 -139 -15 -198 -12 -354 -26 -432 -38 -38
-6 -95 -14 -125 -18 -30 -4 -65 -13 -77 -20 -17 -9 -28 -10 -43 -2 -13 7 -26
7 -37 1 -10 -5 -40 -12 -68 -16 -27 -4 -65 -14 -83 -21 -24 -10 -39 -11 -52
-4 -13 7 -29 6 -52 -4 -57 -23 -135 -46 -159 -46 -13 0 -58 -10 -99 -21 -41
-11 -93 -24 -115 -29 -22 -5 -76 -19 -120 -30 -44 -12 -93 -25 -110 -29 -16
-5 -47 -16 -69 -25 -21 -9 -47 -16 -58 -16 -11 0 -40 -8 -66 -18 -71 -28 -143
-52 -187 -63 -22 -6 -50 -17 -62 -25 -12 -8 -32 -14 -43 -14 -23 0 -282 -60
-290 -67 -11 -10 45 -44 84 -50 30 -4 53 -18 85 -50 25 -24 74 -59 110 -77
100 -51 135 -71 219 -129 101 -69 146 -101 152 -107 3 -3 40 -32 83 -64 42
-32 98 -78 125 -102 26 -24 65 -56 87 -71 46 -32 505 -493 505 -508 0 -5 44
-55 98 -111 112 -117 167 -191 163 -219 -2 -15 0 -17 11 -8 11 10 21 2 51 -38
20 -28 37 -55 37 -62 1 -20 23 -52 78 -113 30 -33 72 -90 95 -129 23 -38 44
-72 47 -75 3 -3 33 -47 67 -97 41 -63 59 -99 56 -113 -3 -11 -1 -20 5 -20 14
0 65 -82 111 -177 21 -43 54 -103 74 -134 43 -68 307 -595 307 -613 0 -8 16
-49 36 -92 38 -83 69 -162 139 -359 24 -66 49 -136 55 -155 7 -19 16 -39 21
-45 4 -5 23 -58 43 -117 20 -59 50 -137 67 -175 42 -94 53 -121 74 -178 40
-114 114 -334 130 -390 9 -33 30 -93 46 -132 16 -40 29 -80 29 -88 0 -9 10
-34 21 -57 17 -34 19 -46 10 -61 -10 -15 -8 -22 14 -38 19 -16 24 -26 19 -44
-4 -17 3 -40 25 -75 32 -53 38 -75 21 -85 -15 -9 -12 -25 4 -25 8 0 21 -19 29
-42 26 -73 65 -200 82 -268 31 -121 126 -397 146 -425 4 -6 11 -38 15 -73 4
-36 14 -73 25 -86 23 -29 35 -76 20 -76 -6 0 -11 -7 -11 -15 0 -8 6 -15 14
-15 15 0 36 -49 36 -84 0 -12 7 -31 15 -43 9 -12 26 -53 39 -90 52 -150 77
-219 85 -238 5 -11 12 -36 15 -56 4 -19 17 -51 31 -69 29 -39 31 -53 10 -70
-19 -15 -19 -30 -2 -30 8 0 22 -9 31 -19 14 -16 15 -22 5 -39 -11 -17 -8 -25
20 -61 30 -38 32 -43 18 -59 -21 -23 0 -54 31 -45 20 5 21 2 16 -25 -5 -23 1
-44 26 -86 18 -32 29 -63 26 -73 -6 -18 19 -74 62 -143 13 -20 20 -44 17 -56
-3 -13 3 -28 15 -39 11 -10 20 -22 20 -27 0 -9 14 -40 82 -185 16 -34 33 -65
38 -68 14 -9 12 -21 -7 -40 -16 -16 -15 -18 5 -34 12 -9 42 -61 67 -116 25
-55 51 -109 58 -120 6 -11 37 -72 70 -135 73 -142 91 -173 136 -229 24 -29 32
-46 24 -48 -20 -7 -16 -17 22 -57 19 -21 35 -42 35 -47 0 -6 17 -36 38 -67 21
-31 62 -100 92 -152 68 -121 198 -316 266 -400 28 -36 71 -90 95 -121 44 -56
238 -290 249 -299 3 -3 44 -52 92 -110 80 -98 124 -144 224 -229 165 -143 236
-206 279 -250 27 -28 55 -51 61 -51 7 0 42 -24 78 -53 55 -44 165 -124 358
-260 21 -15 76 -48 121 -73 45 -25 109 -63 142 -83 149 -93 233 -139 265 -149
81 -24 164 -58 313 -128 87 -41 163 -74 169 -74 6 0 30 -9 52 -20 43 -20 100
-41 336 -122 138 -48 211 -69 360 -105 36 -8 79 -21 95 -29 17 -7 49 -17 70
-23 76 -19 110 -29 153 -45 32 -11 49 -13 63 -6 10 6 19 14 19 18 0 11 -64
162 -83 199 -9 18 -17 41 -17 53 0 11 -9 33 -20 49 -12 15 -25 54 -30 87 -8
55 -38 175 -76 304 -9 30 -23 93 -31 140 -8 47 -32 157 -53 245 -35 145 -58
250 -89 405 -17 85 -40 242 -56 380 -8 69 -17 131 -20 139 -6 14 -19 151 -36
366 -5 66 -12 211 -15 323 -4 111 -10 202 -15 202 -13 0 -4 897 9 985 6 39 16
176 21 305 6 138 16 264 26 305 8 38 15 86 15 105 0 19 9 87 19 150 11 63 27
160 35 215 30 195 84 462 125 619 23 87 41 169 41 183 0 26 8 55 77 263 24 74
69 225 98 335 69 258 135 454 196 583 27 56 49 107 49 112 0 9 18 51 71 168
11 24 26 63 35 88 8 24 42 100 74 169 33 69 60 131 60 138 0 18 207 433 242
486 17 25 58 97 93 160 51 95 124 212 180 287 6 9 3 20 -13 37 -12 13 -22 27
-22 31 0 13 -72 96 -83 96 -13 0 -33 23 -152 175 -55 70 -144 171 -199 224
-54 53 -191 188 -304 300 -113 113 -234 226 -269 252 -34 27 -93 79 -130 116
-74 75 -188 172 -328 279 -49 37 -96 74 -104 81 -7 8 -41 32 -75 55 -33 23
-75 53 -92 67 -53 44 -67 54 -158 115 -49 33 -103 71 -120 86 -17 14 -65 48
-106 75 -41 28 -79 54 -85 58 -9 7 -127 79 -177 107 -10 6 -26 14 -35 20 -58
33 -170 100 -178 107 -12 11 -143 82 -265 143 -47 24 -99 53 -115 65 -38 28
-170 95 -187 95 -7 0 -69 27 -138 61 -176 86 -249 119 -262 119 -6 0 -60 23
-120 50 -60 28 -113 50 -119 50 -5 0 -38 13 -72 29 -59 27 -108 44 -272 93
-38 12 -101 34 -140 49 -38 16 -100 36 -136 44 -36 8 -97 24 -135 36 -38 12
-94 27 -124 34 -30 8 -108 27 -172 44 -64 16 -152 37 -195 45 -43 9 -109 22
-148 31 -38 8 -81 15 -95 15 -15 0 -31 5 -37 11 -5 5 -61 16 -124 24 -63 8
-163 24 -224 36 -105 21 -154 26 -450 50 -154 12 -1028 23 -1039 12z"/>
<path d="M13620 11390 c-8 -6 -44 -19 -80 -30 -36 -11 -97 -40 -137 -64 -40
-25 -85 -48 -100 -52 -15 -4 -165 -74 -333 -157 -168 -82 -326 -156 -351 -163
-25 -8 -58 -25 -71 -39 -32 -31 -72 -58 -170 -114 -43 -25 -78 -48 -78 -53 0
-7 -25 -25 -124 -90 -23 -14 -45 -30 -51 -35 -5 -5 -35 -24 -65 -43 -30 -19
-57 -37 -60 -40 -3 -4 -26 -20 -51 -38 -25 -17 -66 -50 -91 -74 -103 -99 -187
-174 -253 -224 -38 -29 -128 -110 -200 -179 -71 -70 -155 -144 -186 -165 -33
-23 -80 -70 -113 -114 -31 -41 -62 -81 -69 -88 -7 -7 -37 -42 -67 -78 -30 -36
-57 -67 -60 -70 -3 -3 -21 -25 -40 -50 -19 -25 -44 -54 -55 -66 -52 -54 -93
-102 -115 -134 -13 -19 -58 -78 -100 -130 -42 -52 -100 -131 -130 -175 -29
-44 -56 -82 -60 -85 -8 -6 -130 -190 -130 -197 0 -2 -13 -21 -29 -41 -16 -20
-46 -68 -67 -107 -20 -38 -44 -78 -53 -88 -49 -57 -155 -252 -365 -672 -129
-258 -240 -488 -247 -510 -6 -22 -27 -72 -45 -111 -18 -39 -36 -94 -40 -123
-4 -29 -13 -58 -20 -66 -14 -14 -37 -71 -59 -145 -7 -25 -25 -71 -39 -104 -15
-32 -33 -84 -40 -115 -8 -31 -28 -92 -45 -136 -17 -44 -31 -83 -31 -88 0 -5
-6 -23 -14 -40 -17 -40 -36 -118 -36 -152 0 -14 -13 -67 -29 -118 -31 -96 -70
-250 -95 -377 -9 -41 -22 -104 -31 -140 -16 -68 -32 -157 -66 -355 -11 -66
-24 -133 -29 -150 -5 -16 -14 -88 -20 -160 -15 -160 -17 -179 -30 -285 -6 -47
-15 -137 -20 -200 -5 -63 -13 -149 -19 -190 -30 -236 -39 -492 -29 -875 6
-223 27 -445 45 -464 8 -7 11 -21 9 -30 -16 -52 6 -361 26 -361 4 0 8 -24 7
-53 0 -89 19 -260 31 -267 6 -4 11 -27 10 -51 0 -24 7 -87 15 -139 9 -52 18
-111 21 -130 12 -87 27 -156 35 -166 5 -7 9 -29 8 -50 -1 -22 8 -75 20 -119
12 -44 30 -114 41 -155 11 -41 27 -102 36 -135 9 -33 17 -81 18 -107 0 -27 4
-48 7 -48 4 0 9 -10 12 -22 3 -13 19 -61 35 -108 17 -47 35 -112 41 -145 6
-32 16 -64 21 -69 6 -6 10 -20 10 -33 0 -13 11 -46 25 -73 27 -53 33 -100 13
-100 -7 -1 0 -12 16 -25 28 -22 29 -26 17 -49 -12 -22 -10 -30 23 -83 20 -32
36 -66 36 -74 0 -9 6 -21 13 -27 15 -12 430 -15 1712 -13 580 0 992 5 1025 11
30 5 93 16 140 24 93 15 185 54 224 93 19 19 32 24 50 19 18 -4 26 -1 30 11 3
10 47 58 97 108 50 49 102 109 116 132 14 24 29 40 34 37 5 -3 8 -2 7 3 -1 4
16 46 39 93 22 47 43 96 46 110 3 14 22 75 42 135 20 61 43 131 52 156 8 26
17 97 20 158 3 61 9 111 13 111 12 0 20 84 26 265 3 93 10 175 15 182 17 20
31 123 30 216 -1 49 2 94 7 100 15 20 29 139 37 322 2 39 10 111 18 160 9 50
16 118 16 153 1 35 5 72 11 82 12 22 34 281 31 373 -1 37 2 67 8 67 5 0 12 38
16 85 4 47 12 88 17 91 5 4 6 38 2 83 -4 56 -3 85 7 102 7 13 18 85 25 159 7
74 18 178 24 230 11 96 18 156 47 420 8 80 15 163 14 185 0 22 4 69 10 105 5
36 16 126 24 200 8 74 19 164 24 200 6 36 13 127 16 204 3 76 8 143 11 148 10
16 33 209 34 280 0 36 4 68 9 70 5 2 14 71 21 153 16 206 16 201 29 289 13 81
17 118 45 421 9 94 20 197 25 230 6 33 15 119 21 190 6 72 16 155 21 185 5 30
16 136 24 236 8 100 19 212 24 250 5 38 13 116 17 174 4 58 10 107 14 110 4 3
9 43 11 90 l4 85 -65 0 c-48 1 -77 -5 -112 -22 -26 -13 -56 -23 -66 -23 -11 0
-78 -29 -148 -64 -71 -35 -142 -66 -158 -70 -38 -9 -208 -130 -271 -194 -42
-41 -89 -96 -127 -147 -4 -5 -27 -35 -51 -65 -48 -61 -117 -166 -117 -178 0
-5 -14 -27 -30 -49 -17 -23 -39 -66 -49 -95 -10 -30 -30 -79 -44 -109 -29 -63
-87 -235 -122 -364 -14 -49 -32 -115 -41 -145 -9 -30 -25 -95 -35 -145 -10
-49 -20 -101 -23 -115 -3 -14 -12 -65 -21 -115 -27 -165 -53 -299 -65 -345 -7
-25 -16 -70 -21 -100 -26 -168 -42 -250 -55 -290 -8 -24 -19 -72 -24 -105 -13
-89 -47 -265 -59 -305 -6 -19 -11 -45 -11 -57 0 -36 -62 -162 -83 -169 -12 -4
-16 -11 -12 -22 18 -44 16 -54 -26 -105 -24 -29 -67 -72 -95 -96 -37 -31 -54
-53 -58 -76 -4 -20 -17 -40 -34 -52 -43 -29 -115 -63 -135 -63 -10 0 -43 -12
-72 -26 -46 -23 -57 -25 -70 -14 -13 11 -20 9 -46 -16 -30 -28 -32 -29 -135
-28 -57 1 -110 6 -117 12 -21 16 -108 33 -162 31 -55 -2 -75 4 -75 26 0 14
-55 79 -136 161 -44 44 -52 57 -57 102 -3 28 -22 89 -42 136 -34 77 -36 90
-32 158 4 75 38 260 57 313 5 17 14 59 19 95 19 129 43 266 57 315 7 28 18 79
23 115 5 36 19 106 31 155 11 50 29 133 40 185 10 52 28 140 39 195 11 55 27
141 36 190 25 138 63 313 105 485 12 47 24 105 26 130 3 25 11 59 19 75 7 17
16 50 20 75 8 52 52 151 72 163 9 6 12 19 8 40 -5 27 9 61 81 202 75 148 163
299 183 315 15 12 101 151 101 163 0 8 12 27 26 43 14 16 34 45 44 65 10 20
42 60 70 90 28 30 68 74 88 99 20 25 51 58 67 75 17 16 49 55 72 85 66 86 438
450 532 520 47 35 92 71 100 79 9 9 45 38 81 66 36 27 70 54 76 60 43 41 143
124 174 145 20 14 73 58 117 98 44 40 96 83 115 95 20 12 66 58 103 102 36 44
85 102 108 128 23 27 49 61 58 76 8 16 23 36 32 45 27 27 137 255 137 284 1
15 7 38 15 52 8 14 14 34 15 46 0 12 20 61 45 109 45 88 50 115 20 115 -13 0
-15 35 -15 280 0 154 -3 280 -7 280 -5 0 -15 -5 -23 -10z"/>
<path d="M16957 11293 c-4 -38 -7 -107 -7 -156 0 -52 -5 -95 -12 -107 -9 -15
-10 -23 -2 -28 7 -4 13 -71 17 -176 5 -120 11 -174 20 -185 24 -28 28 -53 12
-77 -9 -14 -11 -24 -5 -24 24 0 52 -38 49 -67 -3 -29 12 -58 96 -188 18 -27
40 -63 48 -80 8 -16 26 -42 38 -57 55 -61 116 -134 141 -167 32 -44 147 -148
195 -178 20 -12 52 -36 72 -55 56 -52 183 -162 213 -185 39 -29 138 -114 171
-145 16 -16 34 -28 40 -28 7 0 37 -24 68 -53 30 -28 77 -72 105 -96 110 -99
244 -233 385 -386 25 -28 59 -62 77 -77 48 -41 142 -154 205 -248 31 -47 74
-104 95 -127 22 -24 46 -55 53 -71 8 -15 36 -62 62 -103 116 -180 146 -231
200 -341 31 -64 57 -123 57 -130 0 -7 17 -53 38 -103 43 -100 68 -170 83 -230
6 -21 15 -45 20 -51 5 -7 19 -61 30 -121 44 -237 61 -340 65 -383 4 -54 21
-127 34 -155 6 -11 12 -40 15 -65 2 -25 13 -79 24 -120 24 -93 42 -177 86
-400 44 -220 74 -374 136 -680 32 -155 43 -274 31 -338 -15 -89 -42 -193 -63
-244 -10 -26 -19 -59 -19 -74 0 -22 -17 -45 -75 -101 -43 -42 -75 -82 -75 -93
0 -24 -16 -32 -100 -53 -113 -28 -301 -40 -399 -26 -134 20 -253 84 -365 197
-95 96 -118 128 -162 217 -16 33 -33 65 -39 71 -18 20 -69 201 -85 304 -5 30
-23 118 -39 195 -17 77 -38 176 -47 220 -8 44 -22 107 -30 141 -8 33 -14 69
-14 79 0 18 -11 67 -50 230 -11 44 -22 103 -25 130 -7 54 -39 210 -60 290 -8
28 -17 73 -21 100 -3 28 -21 100 -39 160 -19 61 -40 137 -48 170 -9 33 -31
105 -51 160 -19 55 -36 106 -36 113 0 8 -10 28 -22 45 -13 17 -28 48 -34 69
-24 78 -161 277 -274 398 -52 56 -99 109 -103 118 -4 10 -29 30 -55 45 -113
67 -208 129 -227 147 -16 15 -24 17 -33 8 -15 -15 -42 7 -42 33 0 22 -4 23
-30 7 -15 -10 -22 -9 -37 5 -10 9 -51 33 -91 52 -60 31 -75 35 -88 24 -13 -11
-19 -8 -39 16 -18 24 -31 30 -66 31 -24 0 -52 4 -61 8 -24 11 -53 -53 -43 -97
4 -17 13 -81 20 -142 13 -103 18 -150 45 -380 6 -49 15 -137 20 -193 5 -57 16
-168 25 -245 9 -78 20 -187 26 -242 5 -55 14 -113 19 -129 6 -16 10 -47 10
-70 0 -54 19 -238 30 -297 5 -25 14 -123 21 -217 7 -95 15 -172 19 -172 4 0
10 -53 14 -117 4 -65 12 -158 17 -208 6 -49 12 -115 14 -145 15 -203 27 -319
35 -344 6 -16 10 -49 10 -73 0 -44 8 -104 35 -278 8 -49 16 -134 19 -189 3
-54 10 -113 15 -130 6 -17 15 -103 22 -191 6 -88 15 -167 19 -175 5 -8 13
-116 20 -240 6 -124 16 -227 21 -228 5 -2 9 -20 9 -41 0 -20 7 -89 16 -152 9
-63 19 -141 21 -174 4 -62 24 -284 43 -462 26 -256 31 -307 44 -453 9 -85 20
-177 25 -205 6 -27 15 -122 22 -210 6 -88 15 -170 20 -183 5 -13 9 -51 10 -85
0 -34 7 -102 15 -152 8 -49 19 -137 24 -195 16 -196 23 -250 32 -250 6 0 8
-39 7 -92 -3 -81 -1 -93 14 -96 11 -2 23 -23 33 -60 9 -31 29 -86 45 -122 15
-36 30 -77 33 -91 10 -49 144 -243 236 -342 30 -32 60 -67 65 -77 6 -9 15 -15
21 -13 7 2 50 -14 95 -37 46 -22 94 -40 106 -40 12 0 37 -9 55 -20 23 -14 51
-20 91 -20 31 0 57 -4 57 -9 0 -19 324 -24 1524 -23 693 1 1260 3 1262 5 1 1
8 31 14 67 7 36 18 79 25 95 7 17 16 46 20 65 4 19 11 40 15 45 12 17 59 167
66 215 4 25 18 65 31 89 12 24 23 55 23 68 0 13 12 35 27 49 23 21 25 28 15
44 -14 23 -16 60 -3 60 4 0 14 28 21 63 7 34 18 80 25 102 23 70 88 360 103
465 24 156 51 310 61 346 6 21 15 77 20 124 5 47 15 108 21 135 6 28 15 93 20
145 5 52 14 129 19 170 5 41 13 158 17 260 4 102 11 188 17 191 13 9 13 1054
0 1071 -6 7 -14 88 -17 179 -4 91 -12 192 -17 225 -5 32 -12 91 -15 129 -11
154 -55 462 -102 710 -17 88 -33 183 -37 210 -3 28 -11 66 -16 85 -5 19 -22
90 -38 156 -16 67 -43 166 -59 220 -17 55 -33 115 -37 134 -4 19 -24 89 -46
155 -21 66 -70 219 -109 340 -39 121 -80 243 -92 270 -11 28 -25 64 -30 80 -6
17 -31 76 -55 133 -24 57 -52 126 -62 155 -10 29 -32 79 -48 112 -17 33 -36
78 -43 100 -7 22 -27 69 -45 105 -18 36 -72 144 -119 240 -84 170 -150 293
-172 321 -6 8 -31 52 -56 99 -39 73 -151 255 -175 285 -5 6 -24 37 -42 70 -19
33 -47 77 -64 99 -44 56 -72 95 -103 146 -15 25 -41 59 -56 75 -16 17 -36 44
-45 60 -9 17 -58 83 -110 147 -51 65 -110 143 -132 174 -21 31 -80 100 -130
153 -50 53 -103 115 -119 137 -49 66 -441 457 -537 535 -49 40 -109 91 -132
113 -23 21 -69 60 -102 85 -32 25 -90 71 -128 102 -37 31 -109 85 -159 120
-51 35 -120 85 -155 111 -117 86 -143 104 -214 143 -38 21 -88 50 -110 65 -22
15 -67 42 -100 59 -33 17 -89 49 -125 71 -117 71 -434 224 -475 230 -32 4 -41
10 -43 28 -4 23 -18 30 -24 11 -2 -7 -15 -6 -38 4 -76 33 -200 77 -217 77 -10
0 -27 7 -37 15 -11 8 -23 15 -26 15 -4 0 -10 -30 -13 -67z"/>
</g>
</svg>
